<svg width="147" height="146" viewBox="0 0 147 146" fill="none" xmlns="http://www.w3.org/2000/svg">
<path d="M99.1495 39.398C98.1935 39.398 97.3281 40.0873 96.9948 41.11L96.9548 41.2313L96.9348 41.222L86.2295 71.8047L74.3641 84.8887C71.8921 87.6167 70.8508 90.15 70.6681 90.6327L59.7241 117.726C59.5561 118.129 58.0415 121.669 55.4761 124.619L44.5721 137.171L44.5615 136.874L42.9348 93.7073C42.9335 93.5847 42.9335 90.7967 44.1268 87.7527L50.2388 72.1607C50.4241 71.7633 50.5175 71.3593 50.5175 70.9487C50.5175 69.51 49.4841 68.3407 48.2135 68.3407C47.3041 68.3407 46.4801 68.9487 46.1095 69.8913L46.0641 70.006L46.0455 69.998L39.9148 85.6393C38.2188 89.962 38.3295 93.8367 38.3295 93.874L40.1695 142.685L40.2628 142.665L40.2348 142.834C40.2095 142.999 40.1961 143.143 40.1961 143.281C40.1961 144.719 41.2295 145.889 42.5001 145.889C43.1748 145.889 43.8175 145.542 44.2615 144.942L44.3215 144.862L44.3441 144.873L58.7641 128.274C62.0161 124.529 63.8401 120.082 63.9148 119.893L74.9028 92.6873C74.9068 92.6767 75.6601 90.7407 77.5801 88.6233L90.1695 74.742L101.228 43.1153C101.38 42.7527 101.455 42.3807 101.455 42.006C101.455 40.5687 100.42 39.398 99.1495 39.398Z" fill="#38B4D2"/>
<path d="M143.837 13.6028C143.794 13.6028 143.753 13.6094 143.71 13.6161C143.684 13.6201 143.657 13.6241 143.63 13.6281L143.533 13.6374L143.52 13.5934H108.965C108.38 13.5601 107.426 13.3814 106.161 12.7281L100.197 9.64409C100.172 9.63076 98.905 8.80943 97.0183 8.95209L96.8917 8.96276V8.95743L84.7637 10.1761C84.7397 10.1761 84.709 10.1734 84.6557 10.1734C84.2397 10.1734 82.8077 10.3188 81.9277 12.1974C81.905 12.2414 81.8943 12.2868 81.8823 12.3281C81.8743 12.3561 81.865 12.3841 81.857 12.4121L81.7957 12.6014L81.757 12.5614L72.101 33.1308L72.0783 33.2001C71.925 33.5641 71.849 33.9401 71.849 34.3201C71.849 35.7574 72.881 36.9268 74.1517 36.9268C74.973 36.9268 75.7103 36.4428 76.1303 35.6334L76.185 35.5268L76.1943 35.5308L84.9917 16.7828V16.7841L85.0103 16.7454C85.1743 16.4094 85.8303 15.3028 87.4277 15.1428C87.4437 15.1414 87.4557 15.1374 87.4677 15.1334C87.4823 15.1308 87.4997 15.1254 87.5183 15.1228L87.6557 15.0961V15.1201L96.733 14.2068C96.7717 14.2054 96.8143 14.2041 96.8637 14.2041C97.349 14.2041 98.1477 14.3174 99.189 14.8561L105.517 18.1228C106.8 18.7481 108.176 18.8148 108.706 18.8148C108.874 18.8148 108.973 18.8081 108.974 18.8081H123.646L108.205 22.8468C108.185 22.8508 107.416 22.9681 106.809 23.7708L106.7 23.9121V23.9108L101.85 31.0201C101.573 31.4641 101.425 31.9801 101.425 32.5174C101.425 33.9561 102.46 35.1254 103.73 35.1254C104.398 35.1254 105.034 34.7868 105.477 34.1974L105.55 34.1001L105.556 34.1041L109.168 28.8214C109.414 28.4921 110.13 27.6948 111.501 27.3374L144.026 18.8321L144.008 18.7801L144.152 18.7814C145.288 18.6041 146.142 17.4988 146.142 16.2094C146.142 14.7721 145.108 13.6028 143.837 13.6028Z" fill="#38B4D2"/>
<path d="M66.2471 29.2666L66.1684 29.1986C66.1364 29.1733 66.1071 29.1493 66.0764 29.1279L65.2724 28.4853L65.2751 28.4826L65.2724 28.4786L47.4631 14.2653C44.0538 11.5439 39.7564 10.0706 39.5738 10.0093L25.1364 6.12259L14.3778 3.45059L13.8804 3.69059L13.7724 3.47992L14.0044 3.35591L3.77776 0.717253C3.60176 0.673253 3.43909 0.651915 3.27909 0.651915C2.00843 0.651915 0.975098 1.82125 0.975098 3.25858C0.975098 3.91192 1.19909 4.54259 1.60176 5.03325L1.63776 5.07725L1.6351 5.08258L1.6431 5.09058L1.68443 5.11192V5.14392L5.79243 10.1759L14.2551 20.7613L14.2511 20.7666L14.5058 21.0733L14.9978 21.6906L15.0871 21.7719L19.1231 26.6359C19.8444 27.6079 20.2378 28.1279 20.3618 28.2759L41.6684 53.7159V53.7066L43.9738 56.5239L48.3831 61.8959L48.4738 61.9959C48.9204 62.5479 49.5231 62.8506 50.1698 62.8506C51.4418 62.8506 52.4751 61.6826 52.4751 60.2439C52.4751 59.5826 52.2498 58.9493 51.8418 58.4586L51.7764 58.3813L51.7818 58.3773L45.1458 50.2933L45.1471 50.2893L23.7231 24.7079C23.7124 24.6933 22.7711 23.4519 22.6204 23.2373H22.6178L17.6231 17.2133L17.5258 17.1213L9.47376 7.34659L12.3951 8.12125L26.1764 11.7612L38.3018 15.0212C38.6978 15.1626 42.1724 16.4239 44.8098 18.5266L63.1298 33.1546C63.1858 33.2026 63.2391 33.2453 63.2964 33.2866L63.5871 33.5066C63.9684 33.7906 64.4084 33.9413 64.8591 33.9413C66.1298 33.9413 67.1658 32.7719 67.1658 31.3333C67.1658 30.5199 66.8298 29.7679 66.2471 29.2666Z" fill="#38B4D2"/>
</svg>
