<svg width="141" height="141" viewBox="0 0 141 141" fill="none" xmlns="http://www.w3.org/2000/svg">
<path d="M70.251 79.2817C68.8577 79.2817 67.771 80.371 67.6524 81.871C67.6057 82.467 67.6164 83.091 67.6284 83.7537L67.6337 83.991C67.6404 84.2537 67.647 84.5163 67.647 84.7777L67.6497 85.1403C67.6457 85.4057 67.643 85.607 67.6337 85.8097C67.6204 86.3817 67.6044 87.055 67.659 87.6563C67.799 89.1417 68.8137 90.1057 70.2444 90.1123C71.719 90.111 72.699 89.1977 72.8004 87.7323C72.9404 85.7417 72.9417 83.723 72.8044 81.735C72.7084 80.3163 71.6337 79.287 70.251 79.2817ZM70.2404 95.3057H70.2324C66.1364 95.295 62.879 92.2817 62.4884 88.1403C62.403 87.227 62.4257 86.3577 62.4444 85.6563C62.4484 85.463 62.4537 85.2897 62.4564 85.1177L62.4524 84.799C62.4524 84.5577 62.447 84.3377 62.443 84.119L62.4377 83.8897C62.423 83.1243 62.4084 82.307 62.475 81.4643C62.8044 77.259 66.143 74.0883 70.2404 74.0883C74.387 74.1017 77.7057 77.2377 77.9857 81.3803C78.1377 83.6057 78.1364 85.8643 77.983 88.0937C77.6897 92.2723 74.4324 95.3057 70.2404 95.3057" fill="#38B4D2"/>
<path d="M92.3134 66.807C92.3148 78.3804 92.3161 89.9564 92.3134 101.531C92.3121 103.704 91.7201 104.302 89.5534 104.302C86.8588 104.304 84.1681 104.304 81.4734 104.304H59.0494C56.3548 104.304 53.6654 104.304 50.9681 104.302C48.8028 104.302 48.2108 103.704 48.2108 101.531C48.2068 89.9564 48.2081 78.3804 48.2108 66.8017L48.2081 65.683L48.2401 65.5644L48.2188 65.4004C48.2868 65.3217 48.7121 65.095 49.7241 65.0884H49.7534V65.0844C51.1708 65.063 52.3134 63.9124 52.3134 62.4924C52.3134 62.4497 52.3028 62.4124 52.3001 62.371C52.3014 62.3724 52.3028 62.3724 52.3028 62.3724V57.3537L52.3148 57.0684C52.3254 55.8484 52.3414 54.5484 52.4014 53.279C52.7854 44.9444 59.6988 37.743 68.1374 36.8897C68.7494 36.8284 69.3614 36.7964 69.9534 36.7964H70.5681C71.1641 36.7964 71.7734 36.8284 72.3814 36.8884C80.8241 37.743 87.7374 44.9444 88.1214 53.2817C88.1814 54.5484 88.1988 55.8484 88.2094 57.0684L88.2174 62.4897H88.2201C88.2201 62.491 88.2188 62.491 88.2188 62.4924C88.2188 63.9257 89.3801 65.0884 90.8148 65.0884C90.8481 65.0884 90.8801 65.079 90.9134 65.0777C90.9121 65.083 90.9094 65.087 90.9081 65.0924C91.6401 65.111 92.2348 65.259 92.3148 65.4444L92.3134 66.807ZM96.2188 61.987C95.5014 61.1644 94.5628 60.5817 93.4134 60.243V57.2977L93.4014 56.979C93.3921 55.7217 93.3721 54.375 93.3094 53.0417C92.8121 42.1937 83.8494 32.831 72.9001 31.7217C72.1188 31.643 71.3348 31.6044 70.5681 31.6044H69.9534C69.1894 31.6044 68.4054 31.643 67.6188 31.7217C56.6748 32.831 47.7108 42.1937 47.2148 53.039C47.1508 54.375 47.1321 55.7217 47.1214 56.979L47.1108 60.243C45.9614 60.5817 45.0228 61.1644 44.3041 61.987C43.0161 63.463 42.9721 65.1324 43.0148 65.7937L43.0161 66.8044C43.0148 78.3804 43.0134 89.9577 43.0161 101.532C43.0188 106.591 45.9161 109.494 50.9641 109.496C53.6601 109.499 56.3534 109.499 59.0494 109.499H81.4734C84.1708 109.499 86.8628 109.499 89.5574 109.496C94.6081 109.494 97.5054 106.591 97.5081 101.532C97.5094 89.9577 97.5081 78.3804 97.5081 66.8097V65.7937C97.5521 65.1324 97.5081 63.463 96.2188 61.987" fill="#38B4D2"/>
<path d="M78.0115 58.9729C78.0101 59.2715 78.0088 59.5729 78.0088 59.8769C77.2235 59.8729 76.3741 59.8715 75.4141 59.8715C74.5528 59.8715 73.6888 59.8715 72.8341 59.8755H71.4701L65.0101 59.8702C64.0915 59.8702 63.2768 59.8715 62.5248 59.8755C62.5248 59.4822 62.5221 59.0929 62.5195 58.7089L62.5181 58.3169C62.5155 57.4142 62.5115 56.4915 62.5395 55.5795C62.6795 50.9115 66.0595 47.2555 70.2355 47.2555H70.2995C74.4755 47.2915 77.8528 50.9502 77.9888 55.5835C78.0221 56.7355 78.0181 57.9315 78.0115 58.9729ZM83.2075 62.3475C83.2128 62.2515 83.2235 62.1582 83.2195 62.0555C83.1981 61.0289 83.2008 59.9929 83.2048 58.9982C83.2101 57.9235 83.2155 56.6715 83.1808 55.4329C82.9621 47.9969 77.3221 42.1235 70.3208 42.0609H70.2355C63.2328 42.0609 57.5715 47.9315 57.3488 55.4182C57.3181 56.3862 57.3195 57.3729 57.3235 58.3355L57.3261 58.7315C57.3315 59.7742 57.3395 60.8502 57.3035 61.9049C57.2888 62.4102 57.3221 63.1329 57.7475 63.8049C58.1115 64.3942 58.8635 65.0889 60.3688 65.0889H60.4341H60.4528C61.7835 65.0702 63.1901 65.0635 65.0101 65.0635L71.4701 65.0689H72.8461C73.6995 65.0649 74.5515 65.0649 75.4008 65.0649H75.4141C77.3341 65.0649 78.8061 65.0702 80.2501 65.0849C80.3181 65.0849 80.3968 65.0782 80.4755 65.0742C80.5261 65.0769 80.5741 65.0889 80.6248 65.0889C82.0581 65.0889 83.2221 63.9262 83.2221 62.4929C83.2221 62.4435 83.2101 62.3969 83.2075 62.3475" fill="#38B4D2"/>
<path d="M70.2628 0.835933C31.7855 0.835933 0.481506 32.1399 0.481506 70.6159C0.481506 95.8453 14.2028 119.049 35.9015 131.352L31.8615 132.753L29.5802 133.545L29.5828 133.555C28.5682 133.908 27.8362 134.863 27.8362 135.999C27.8362 137.432 28.9975 138.595 30.4308 138.595C30.7322 138.595 31.0122 138.533 31.2815 138.441L31.2842 138.452L33.5628 137.66L43.3508 134.264L43.3468 134.253C44.3615 133.901 45.0962 132.948 45.0962 131.811C45.0962 131.713 45.0788 131.621 45.0682 131.527L45.0895 131.524L43.9415 121.228L43.6748 118.829L43.6655 118.831C43.6335 118.551 43.5668 118.269 43.4388 118C42.8188 116.704 41.2695 116.156 39.9748 116.772C38.9508 117.261 38.4042 118.336 38.5242 119.403L38.5122 119.404L38.7788 121.803L40.4388 121.619L38.7788 121.803L39.4002 127.365C18.7695 116.124 5.67617 94.3319 5.67617 70.6159C5.67617 35.0026 34.6495 6.02926 70.2628 6.02926C105.876 6.02926 134.848 35.0026 134.848 70.6159C134.848 102.035 111.632 129.303 80.7362 134.347C77.5628 134.82 74.3468 135.073 71.0975 135.073C67.0855 135.073 63.0708 134.703 59.1655 133.975L59.1615 133.997C59.0082 133.971 58.8482 133.951 58.6882 133.951C57.2548 133.951 56.0922 135.115 56.0922 136.548C56.0922 137.908 57.1402 139.009 58.4722 139.124C62.6108 139.877 66.8548 140.267 71.0975 140.267C74.3748 140.267 77.6228 140.033 80.8308 139.587L80.8322 139.6C81.0895 139.561 81.3455 139.508 81.6015 139.465C86.2988 138.757 90.9082 137.587 95.3802 135.928L95.3135 135.752C105.911 131.668 115.454 125.02 123.01 116.304C133.994 103.632 140.042 87.4053 140.042 70.6159C140.042 32.1399 108.739 0.835933 70.2628 0.835933Z" fill="#38B4D2"/>
</svg>
