<svg width="145" height="145" viewBox="0 0 145 145" fill="none" xmlns="http://www.w3.org/2000/svg">
<path d="M110.691 137.425C109.41 136.111 108.095 134.823 106.929 133.403C100.021 136.868 92.4512 138.728 84.5899 138.731H84.5712V138.719C79.6792 138.719 75.7019 134.74 75.7019 129.851V110.42C77.3645 110.339 79.1219 110.163 80.9365 109.832L81.0579 109.805C96.2472 106.285 107.722 91.5093 107.75 75.4386C107.766 65.7919 107.757 56.1479 107.747 46.5039C107.743 42.2426 104.605 39.0199 100.442 39.0079C96.4405 38.9933 92.4405 38.9959 88.4392 39.0079C88.4019 39.0066 88.3659 38.9959 88.3272 38.9959C88.2859 38.9959 88.2499 39.0066 88.2112 39.0079H88.1672C88.1686 39.0079 88.1685 39.0093 88.1712 39.0106C86.7765 39.0933 85.6686 40.2373 85.6686 41.6506C85.6686 43.0506 86.7566 44.1839 88.1299 44.2866C88.1272 44.2933 88.1259 44.3026 88.1232 44.3106C92.2232 44.2986 96.3259 44.2973 100.426 44.3106C101.69 44.3146 102.442 45.1359 102.443 46.5079C102.453 56.1493 102.462 65.7879 102.446 75.4293C102.423 89.0813 92.7432 101.62 79.9219 104.624C72.4192 105.981 65.7019 104.387 65.6952 104.388C54.4045 101.213 47.4085 93.6853 44.3059 81.3773C43.8632 79.6199 43.6432 77.7213 43.6499 75.7279C43.6592 72.5293 43.6566 69.3306 43.6539 66.1306L43.6499 57.2333C43.6499 53.7053 43.6472 50.1759 43.6539 46.6479C43.6566 44.5546 44.8926 44.3106 45.8206 44.3093C49.8939 44.3013 53.9686 44.3026 58.0419 44.3093C58.0366 44.2999 58.0366 44.2879 58.0326 44.2813C59.3766 44.1506 60.4339 43.0293 60.4339 41.6506C60.4339 40.2879 59.4019 39.1786 58.0805 39.0253C58.0832 39.0186 58.0805 39.0119 58.0832 39.0066H57.8766C57.8432 39.0053 57.8112 38.9959 57.7792 38.9959C57.7446 38.9959 57.7152 39.0053 57.6819 39.0066C53.7219 38.9986 49.7659 38.9973 45.8112 39.0066C41.4259 39.0119 38.3579 42.1519 38.3512 46.6386C38.3432 50.1719 38.3459 53.7039 38.3459 57.2359L38.3512 66.1346C38.3526 69.3279 38.3552 72.5186 38.3459 75.7119C38.3366 78.1466 38.6126 80.4879 39.1632 82.6746C42.7192 96.7866 51.1632 105.811 64.3419 109.515C64.5165 109.559 66.8752 110.124 70.3979 110.368V129.851C70.3979 137.292 76.1686 143.399 83.4659 143.965C83.4686 143.975 83.4712 143.993 83.4712 143.993C83.4712 143.993 85.0365 144.076 85.6739 144.048C85.7072 144.048 85.7312 144.024 85.7579 143.999C94.5779 143.808 103.037 141.54 110.691 137.425" fill="#38B4D2"/>
<path d="M116.923 132.199C116.923 133.666 115.732 134.854 114.27 134.854C112.8 134.854 111.614 133.666 111.614 132.199C111.614 130.732 112.8 129.544 114.27 129.544C115.732 129.544 116.923 130.732 116.923 132.199Z" fill="#38B4D2"/>
<path d="M22.3565 139.029C14.9405 139.029 8.90315 132.725 8.90315 124.978C8.90315 117.23 14.9405 110.926 22.3565 110.926C29.7752 110.926 35.8138 117.23 35.8138 124.978C35.8138 132.725 29.7752 139.029 22.3565 139.029ZM22.3565 105.622C19.4578 105.622 16.7178 106.326 14.2658 107.544C8.99515 97.4717 6.21782 86.1397 6.21782 74.593C6.21782 56.493 13.1005 39.185 25.2072 26.325C25.1965 26.3157 25.1885 26.3037 25.1778 26.2943C25.5605 25.8343 25.7992 25.253 25.7992 24.6117C25.7992 23.149 24.6125 21.9637 23.1525 21.9637C22.2618 21.9637 21.4818 22.405 21.0005 23.077C8.19515 36.8784 0.913818 55.3183 0.913818 74.593C0.913818 87.217 4.00449 99.6077 9.86849 110.577C6.03115 114.124 3.60049 119.257 3.60049 124.978C3.60049 135.65 12.0138 144.333 22.3565 144.333C32.7018 144.333 41.1165 135.65 41.1165 124.978C41.1165 114.305 32.7018 105.622 22.3565 105.622" fill="#38B4D2"/>
<path d="M138.53 44.6554H138.532L137.715 42.8381L137.703 42.8421C125.867 16.9048 100.503 0.206083 72.7418 0.206083C61.4444 0.206083 50.3524 2.95943 40.3604 8.18876C40.3564 8.19143 40.3524 8.18876 40.3484 8.19142C40.0218 8.30742 39.4564 8.62609 38.7578 9.06076C38.5271 9.18742 38.2938 9.31009 38.0644 9.44209C38.0671 9.44475 38.0698 9.44876 38.0724 9.45142C37.9524 9.52342 37.8538 9.62076 37.7471 9.71009C34.4524 11.8834 29.5471 15.5474 29.5471 15.5474L29.5484 15.5488C28.8324 16.0154 28.3551 16.8181 28.3551 17.7368C28.3551 19.1781 29.5231 20.3461 30.9658 20.3461C31.4164 20.3461 31.8351 20.2221 32.2031 20.0208C32.2044 20.0208 32.2084 20.0288 32.2098 20.0288C32.2271 20.0154 32.2484 20.0008 32.2671 19.9861C32.4764 19.8634 32.6724 19.7194 32.8404 19.5461C36.2644 16.9488 40.5004 14.2141 41.0551 13.8568C50.7418 8.39809 61.6311 5.51142 72.7418 5.51142C98.6711 5.51142 122.358 21.2888 133.198 45.7354C133.278 45.9088 133.352 46.0781 133.419 46.2328L133.407 46.2381C133.488 46.3928 141.334 61.8794 138.959 84.4941C137.832 95.2421 134.163 105.505 128.35 114.174C128.335 114.194 128.323 114.219 128.308 114.241C126.48 116.938 121.188 124.102 113.184 129.713C112.082 130.437 107.579 133.338 104.2 134.663C104.191 134.654 104.204 134.695 104.224 134.755C104.135 134.789 104.044 134.809 103.958 134.85C103.067 135.278 102.45 136.189 102.45 137.243C102.45 138.71 103.638 139.899 105.108 139.899C105.612 139.899 106.08 139.75 106.482 139.505C107.932 138.866 115.355 135.474 120.199 131.006L120.235 130.969C123.811 127.99 128.868 123.185 132.73 117.169C132.73 117.167 132.73 117.166 132.732 117.166C132.79 117.073 132.855 116.985 132.915 116.893L132.908 116.886C139.108 107.551 143.027 96.5554 144.232 85.0474C146.483 63.6274 140.232 48.3434 138.53 44.6554Z" fill="#38B4D2"/>
</svg>
