<svg width="145" height="145" viewBox="0 0 145 145" fill="none" xmlns="http://www.w3.org/2000/svg">
<path d="M112.954 79.111H94.97C93.5367 79.111 92.374 80.2737 92.374 81.707C92.374 83.1417 93.5367 84.3057 94.9714 84.3057L94.9754 84.3043H112.954C114.389 84.3043 115.551 83.1403 115.551 81.707C115.551 80.2723 114.389 79.111 112.954 79.111Z" fill="#38B4D2"/>
<path d="M39.1879 94.8081C39.0946 94.8361 38.9999 94.8615 38.9106 94.9015L34.3319 96.4468C34.2106 96.4801 34.0892 96.5148 33.9759 96.5655H33.9746C33.0679 96.9695 32.4319 97.8775 32.4319 98.9375C32.4319 100.371 33.5946 101.533 35.0279 101.533C35.1866 101.533 35.3399 101.513 35.4919 101.487C35.4906 101.503 35.4932 101.519 35.4932 101.536L40.8346 99.7321C40.8319 99.7255 40.8306 99.7188 40.8266 99.7108C41.8306 99.3521 42.5506 98.4028 42.5506 97.2761C42.5506 95.8415 41.3879 94.6801 39.9546 94.6801C39.7039 94.6801 39.4652 94.7255 39.2346 94.7921L39.1879 94.8081Z" fill="#38B4D2"/>
<path d="M94.9699 108.862C93.5352 108.864 92.3726 110.026 92.3726 111.458C92.3726 112.893 93.5352 114.056 94.9699 114.056H101.61C103.045 114.056 104.207 112.893 104.207 111.458C104.207 110.026 103.045 108.862 101.61 108.862H94.9699Z" fill="#38B4D2"/>
<path d="M112.954 99.1797C114.389 99.1797 115.551 98.017 115.551 96.5837C115.551 95.1504 114.389 93.9864 112.954 93.9864H94.9701C93.5355 93.9864 92.3728 95.1504 92.3728 96.5837C92.3728 98.0157 93.5355 99.1797 94.9701 99.1797H112.954Z" fill="#38B4D2"/>
<path d="M139.196 136.665C139.126 137.479 138.786 138.699 137.442 139.072C137.308 139.1 137.164 139.129 137.007 139.155C137.006 139.156 137.003 139.156 137 139.156C136.662 139.215 136.28 139.269 135.927 139.305H116.544C115.755 139.224 114.835 139.057 114.527 138.94L114.364 138.86C113.37 138.409 113.248 137.721 113.258 137.428L113.271 128.321H139.196V136.665ZM126.235 112.752C132.499 112.752 137.738 117.215 138.944 123.128H113.526C114.731 117.215 119.972 112.752 126.235 112.752ZM14.9644 125.387H5.93237C6.2097 119.959 9.93769 115.431 14.9644 113.968V125.387ZM14.9644 139.612H9.11236C7.01369 139.489 5.84036 138.779 5.88303 137.733L5.89237 130.58H14.9644V139.612ZM144.384 137.841C144.404 137.545 144.408 137.265 144.39 137.017V125.724H144.4C144.4 115.708 136.251 107.56 126.235 107.56C117.108 107.56 109.535 114.328 108.263 123.109C108.263 123.109 108.16 126.719 108.11 129.008C108.098 129.016 108.092 129.028 108.082 129.035V137.017C108.028 137.719 108.114 138.647 108.455 139.612H20.1577V101.821H20.1377V34.6574C20.3377 30.1534 23.355 28.8574 23.6457 28.744L32.6657 25.6494C34.1017 25.2867 35.5257 23.8974 35.5257 21.4894V10.396L35.5204 10.2307C35.519 10.2134 35.479 8.53204 36.491 7.40671C37.1724 6.64537 38.2777 6.22671 39.7017 6.16271H39.7057C40.2524 6.16271 42.963 6.32938 43.6564 9.56538C43.6564 9.56804 43.723 9.89737 43.747 10.4267L43.7484 17.112C43.7257 18.2547 44.2297 19.2627 45.131 19.876C46.603 20.88 48.4457 20.3547 49.291 20.024L81.9324 9.04403V19.7827L39.4297 34.124C39.3404 34.1414 39.2524 34.16 39.167 34.1867V34.1854L39.119 34.2C39.027 34.2294 38.9324 34.2547 38.8417 34.2947L34.263 35.8387C34.1417 35.8734 34.0204 35.9094 33.9084 35.96H33.907C32.999 36.3627 32.363 37.2707 32.363 38.3294C32.363 39.7627 33.5257 40.9254 34.959 40.9254C35.1177 40.9254 35.271 40.9067 35.423 40.8787C35.4217 40.896 35.4244 40.912 35.423 40.928L37.663 40.1734L37.671 40.1974L81.9324 25.2627V34.896L39.015 49.3774C38.9257 49.396 38.8364 49.4147 38.751 49.4387L38.7044 49.4534C38.611 49.4827 38.5164 49.5094 38.427 49.548L33.8484 51.092C33.7257 51.1267 33.6057 51.1627 33.4924 51.2134H33.491C32.5844 51.6174 31.947 52.5254 31.947 53.5827C31.947 55.0174 33.111 56.18 34.5444 56.18C34.7017 56.18 34.8564 56.16 35.007 56.1334C35.007 56.148 35.0097 56.1667 35.0084 56.1827L37.2484 55.4254L37.2564 55.452L81.9324 40.3774V50.1174L39.4297 64.4587C39.3404 64.476 39.2524 64.4947 39.167 64.52V64.5187L39.119 64.5347C39.027 64.564 38.9324 64.5894 38.8417 64.628L34.263 66.1734C34.1417 66.2067 34.0204 66.2427 33.9084 66.2947H33.907C32.999 66.6974 32.363 67.604 32.363 68.664C32.363 70.0974 33.5257 71.26 34.959 71.26C35.1177 71.26 35.271 71.2414 35.423 71.2134C35.4217 71.2307 35.4244 71.2467 35.423 71.2627L37.663 70.508L37.671 70.532L81.9324 55.5974V65.2974L39.4297 79.6387C39.3404 79.6574 39.2524 79.676 39.167 79.7V79.6987L39.119 79.7147C39.027 79.7454 38.9324 79.7694 38.8417 79.808L34.263 81.3547C34.1417 81.388 34.0204 81.4227 33.9084 81.4734H33.907C32.999 81.8787 32.363 82.7854 32.363 83.844C32.363 85.2787 33.5257 86.44 34.959 86.44C35.1177 86.44 35.271 86.42 35.423 86.3934C35.4217 86.4107 35.4244 86.4267 35.423 86.444L37.663 85.688L37.671 85.7134L81.9324 70.7787V72.3974C81.927 72.5587 81.927 72.6974 81.9324 72.7974V80.384L58.1737 88.4027C58.1377 88.4107 58.1017 88.416 58.0657 88.4267V88.4254L58.0204 88.4414C57.9257 88.4707 57.8324 88.496 57.743 88.5347L53.1644 90.08C53.0417 90.1134 52.9204 90.1494 52.807 90.1987C51.8977 90.604 51.263 91.5107 51.263 92.5707C51.263 94.004 52.4244 95.1667 53.859 95.1667C54.0177 95.1667 54.171 95.1467 54.323 95.12C54.3217 95.136 54.3244 95.152 54.323 95.1694L57.1484 94.2147L57.1537 94.228L81.9324 85.8667V131.828H81.935C81.935 131.837 81.9324 131.847 81.9324 131.856C81.9324 133.289 83.095 134.451 84.5297 134.451C85.963 134.451 87.1257 133.289 87.1257 131.856C87.1257 131.847 87.123 131.837 87.123 131.828H87.1257V72.44C87.135 72.356 87.1497 72.2374 87.1777 72.14C87.191 72.1387 87.2057 72.1387 87.2217 72.1387H120.382C122.228 72.1387 123.583 72.5747 124.407 73.4334C125.552 74.628 125.494 76.4254 125.494 76.4254L125.49 93.5614V99.7974H125.492C125.503 101.22 126.659 102.371 128.086 102.371C129.514 102.371 130.668 101.22 130.68 99.7974H130.682V76.6587C130.712 75.9267 130.702 72.5587 128.224 69.9134C126.38 67.944 123.742 66.9454 120.382 66.9454H87.2217C87.187 66.9454 87.159 66.9507 87.1257 66.952V13.6654L101.938 28.0254L102.02 28.1014C102.08 28.156 103.471 29.4734 103.644 32.1414L103.66 55.1787V59.3707H103.723C103.723 60.8054 104.886 61.968 106.32 61.968C107.754 61.968 108.916 60.8054 108.916 59.3707C108.916 59.1814 108.892 58.996 108.854 58.8174V55.176H108.852V55.1747H108.854L108.838 32.0614L108.835 31.9147C108.571 27.2854 106.075 24.7694 105.515 24.26L85.9057 5.25071C83.8884 3.29471 81.5617 3.56804 80.327 4.10538L48.9404 14.6627V10.3694L48.939 10.2654C48.8977 9.24937 48.7577 8.58004 48.7337 8.47604C47.4244 2.36938 42.1577 0.898711 39.5457 0.972044C36.6004 1.10404 34.2724 2.10138 32.6257 3.93738C30.3164 6.51204 30.3044 9.74804 30.3324 10.4547L30.3297 20.96L21.943 23.836C21.671 23.932 15.2724 26.2707 14.9457 34.5L14.9444 106.115H14.9644V108.62C6.84303 110.249 0.705702 117.435 0.705702 126.028V137.355C0.668369 138.044 0.705694 140.136 2.27503 141.988C3.72303 143.701 5.95369 144.647 8.90436 144.803L64.8657 144.805H136.107C136.107 144.805 144.752 145.208 144.404 138.137C144.399 138.031 144.391 137.94 144.384 137.841" fill="#38B4D2"/>
<path d="M57.5985 129V131.865C57.6052 133.296 58.7652 134.45 60.1945 134.45C61.6252 134.45 62.7839 133.296 62.7905 131.865H62.7919V129V124.7V121.574H62.7905V117.256C62.8065 116.626 62.7625 113.545 60.4652 111.61C59.3705 110.69 57.3985 109.741 54.1945 110.452L38.0185 114.99C35.9665 115.4 32.3625 117.401 32.3625 122.374V124.79V131.856C32.3625 133.289 33.5252 134.45 34.9599 134.45C36.3932 134.45 37.5559 133.289 37.5559 131.856V124.79V122.374C37.5559 120.66 38.5132 120.197 39.0239 120.084L44.9799 118.418V128.282V131.856C44.9799 133.289 46.1425 134.45 47.5772 134.45C49.0105 134.45 50.1732 133.289 50.1732 131.856V128.282V116.966L55.3839 115.508C56.2039 115.334 56.8479 115.361 57.1145 115.581C57.4732 115.873 57.6065 116.729 57.5985 117.092L57.5972 124.69H57.5985V124.7V129Z" fill="#38B4D2"/>
</svg>
