<svg width="144" height="132" viewBox="0 0 144 132" fill="none" xmlns="http://www.w3.org/2000/svg">
<path d="M85.447 5.78597C84.6604 5.2793 83.871 4.79397 83.0857 4.3593L80.571 8.9033C81.391 9.35664 82.215 9.87264 83.0377 10.418C83.7004 8.80197 84.759 7.38997 85.447 5.78597Z" fill="#38B4D2"/>
<path d="M106.194 21.2567L106.142 21.0674C105.145 17.8074 100.989 7.58468 88.1183 6.69668C87.8157 8.05535 87.553 9.48068 87.0557 10.778C87.2463 10.5087 87.4237 10.234 87.573 9.93802C87.805 9.47668 88.493 9.88202 88.2623 10.3393C88.229 10.406 88.197 10.4767 88.165 10.5447C88.5063 10.3513 88.8543 10.1687 89.2143 9.99402C89.6823 9.76868 90.033 10.3834 89.617 10.6834C89.1277 11.038 88.6237 11.3687 88.1197 11.702C89.5877 11.6687 91.053 11.2274 92.4557 10.8514C92.9543 10.7207 93.165 11.4914 92.6677 11.622C91.857 11.8394 91.037 12.062 90.2117 12.2287C97.2917 13.7033 100.092 19.0767 101.162 22.5407L101.173 22.578C101.358 23.2874 101.84 25.5074 101.84 27.2354V41.7354H107.033V27.2354C107.033 24.454 106.228 21.382 106.194 21.2567Z" fill="#38B4D2"/>
<path d="M104.595 53.9046V45.5792H99.4013V53.9659C99.4013 53.9699 99.404 54.0646 99.4067 54.1766L99.3867 54.5646C99.204 59.5486 97.716 64.3792 95.084 68.5366L97.2773 69.9272L95.0827 68.5379C93.9587 70.3152 92.6253 71.9699 91.12 73.4592C85.972 78.5472 79.1813 81.3512 71.996 81.3539C64.812 81.3512 58.02 78.5472 52.872 73.4579C51.3667 71.9699 50.0333 70.3166 48.908 68.5379L46.7133 69.9272L48.908 68.5379C46.276 64.3779 44.7893 59.5472 44.6053 54.5646L44.588 54.0859C44.5893 54.0006 44.592 53.9312 44.592 53.9046V45.5792H39.3987V53.8419C39.388 54.3326 39.392 54.5912 39.3987 54.7352L39.4067 55.8366L39.4773 55.8979C39.8667 61.3939 41.5987 66.7006 44.52 71.3152C45.8547 73.4246 47.4373 75.3886 49.2213 77.1539C55.3453 83.2072 63.4293 86.5432 71.9867 86.5459H71.996H72.0053C80.5627 86.5432 88.648 83.2072 94.7707 77.1539C96.556 75.3872 98.1373 73.4232 99.472 71.3152C102.388 66.7099 104.123 61.4112 104.515 55.9219L104.595 55.8552V54.7246C104.6 54.5832 104.605 54.3392 104.595 53.9046Z" fill="#38B4D2"/>
<path d="M110.97 117.744C110.97 116.31 109.807 115.147 108.374 115.147C108.105 115.147 107.85 115.202 107.605 115.276L107.601 115.26C101.054 117.176 94.7272 116.018 91.5405 115.156L91.5365 115.166C91.3205 115.107 91.0979 115.067 90.8632 115.067C89.4285 115.067 88.2659 116.23 88.2659 117.662C88.2659 118.863 89.0832 119.863 90.1899 120.16L90.1859 120.17C92.4032 120.768 95.9285 121.488 100.063 121.488C102.857 121.488 105.927 121.16 109.058 120.244L109.055 120.239C110.157 119.938 110.97 118.939 110.97 117.744Z" fill="#38B4D2"/>
<path d="M140.888 106.647C138.552 101.62 134.082 98.1052 127.604 96.1959C125.97 95.7145 124.305 95.3692 122.694 95.0359C121.569 94.8039 120.506 94.5839 119.454 94.3212C112.486 92.5732 105.545 90.1332 98.8236 87.0692C98.4796 86.9025 98.1009 86.8012 97.6929 86.8012C96.2596 86.8012 95.0969 87.9625 95.0969 89.3972C95.0969 90.4385 95.7143 91.3305 96.5969 91.7439L96.5903 91.7599C103.624 94.9732 110.892 97.5292 118.193 99.3572C119.349 99.6479 120.516 99.8879 121.642 100.121C123.218 100.448 124.706 100.757 126.136 101.176C131.189 102.668 134.476 105.173 136.178 108.835C138.526 113.891 138.314 119.144 137.741 123.68C137.498 125.173 136.746 127.099 136.39 127.953C136.329 128.075 136.276 128.2 136.232 128.331C136.214 128.372 136.201 128.401 136.201 128.401C136.201 128.401 136.208 128.405 136.208 128.407C136.138 128.641 136.088 128.885 136.088 129.144C136.088 130.579 137.25 131.741 138.685 131.741C139.476 131.741 140.174 131.383 140.65 130.823L140.68 130.849C141.216 130.236 141.629 129.533 141.909 128.761C142.336 127.587 142.637 126.299 142.833 124.825C143.549 119.447 143.877 113.08 140.888 106.647Z" fill="#38B4D2"/>
<path d="M76.5746 102.153C76.5746 100.72 75.4119 99.5559 73.9773 99.5559C73.9266 99.5559 73.8773 99.5692 73.8266 99.5705C73.2386 99.6052 72.6386 99.6225 72.0439 99.6225C62.8013 99.6225 54.2866 95.4599 48.6013 88.1999C48.1666 87.3719 47.3079 86.8012 46.3093 86.8012C46.2999 86.8012 46.2933 86.8039 46.2839 86.8039C46.2759 86.8039 46.2679 86.8012 46.2599 86.8012C45.8359 86.8012 45.4413 86.9132 45.0893 87.0932C44.5853 87.3225 44.0813 87.5372 43.5773 87.7572C42.8973 88.0572 42.2146 88.3492 41.5293 88.6359C40.5906 89.0292 39.6533 89.4065 38.7133 89.7732C37.8759 90.0985 37.0346 90.4172 36.1919 90.7239C35.4799 90.9825 34.7666 91.2399 34.0519 91.4839C33.0586 91.8239 32.0626 92.1452 31.0666 92.4585C28.3373 93.3079 25.5906 94.0559 22.8093 94.6985C22.8106 94.7052 22.8133 94.7119 22.8146 94.7212C22.3213 94.8265 21.8226 94.9292 21.3079 95.0359C19.6986 95.3692 18.0333 95.7145 16.3999 96.1959C9.92127 98.1052 5.45193 101.621 3.11593 106.647C0.126601 113.08 0.454602 119.447 1.16927 124.825C1.36527 126.299 1.6666 127.587 2.0946 128.761C2.3746 129.533 2.78794 130.236 3.32394 130.849L3.35194 130.823C3.82794 131.383 4.5266 131.741 5.3186 131.741C6.75327 131.741 7.9146 130.579 7.9146 129.144C7.9146 128.885 7.86527 128.641 7.79594 128.407C7.79594 128.405 7.80127 128.403 7.80127 128.403C7.80127 128.403 7.78927 128.372 7.7706 128.331C7.72794 128.2 7.6746 128.075 7.61194 127.955C7.25727 127.099 6.50527 125.173 6.2626 123.681C5.68793 119.144 5.47727 113.891 7.82527 108.835C9.52794 105.173 12.8146 102.668 17.8679 101.177C19.2973 100.757 20.7853 100.448 22.3599 100.123C23.4879 99.8879 24.6546 99.6479 25.8093 99.3572C32.4479 97.6945 39.0586 95.4252 45.4906 92.6132C52.1466 100.395 61.7119 104.816 72.0439 104.816C72.7399 104.816 73.4399 104.795 74.1293 104.756L74.1279 104.736C75.4906 104.655 76.5746 103.536 76.5746 102.153Z" fill="#38B4D2"/>
<path d="M49.3422 10.7884L47.3142 11.3018Z" fill="#38B4D2"/>
<path d="M106.193 21.2569L106.141 21.0675C104.91 17.0449 100.696 7.59819 88.1984 6.69952C87.7278 6.63685 86.3971 6.37152 85.6051 5.87685C84.7678 5.33152 83.9197 4.82085 83.0837 4.35952L83.0851 4.35819C78.0718 1.58619 72.9771 0.227519 67.9038 0.306186C66.7984 0.246186 60.4878 0.15019 53.2931 4.70619C51.4371 5.88352 49.7024 7.19152 48.1304 8.59952C48.0398 8.67952 47.9518 8.76219 47.8624 8.84219H47.8611L47.7824 8.91552C47.7398 8.95419 47.6958 8.99419 47.6531 9.03419H47.6544L47.6531 9.03685L47.6518 9.03552C47.5998 9.08352 47.5478 9.13285 47.4971 9.18219L47.4691 9.20752C47.4278 9.24752 47.3851 9.28619 47.3438 9.32619C46.9118 9.74085 46.4891 10.1729 46.0784 10.6102C45.5291 11.0849 45.1758 11.7809 45.1758 12.5635C45.1758 13.9995 46.3384 15.1609 47.7717 15.1609C48.5211 15.1609 49.1918 14.8395 49.6651 14.3329L49.6864 14.3515C50.1651 13.8302 50.6718 13.3209 51.1891 12.8395C52.6518 11.4795 54.2958 10.2209 56.0731 9.09419C62.2771 5.16619 67.5984 5.49152 67.6331 5.49152L67.7677 5.50352L67.9024 5.50085C72.0651 5.41152 76.3331 6.55952 80.5717 8.90219L81.2944 7.59552L80.5717 8.90352C81.2984 9.30485 82.0398 9.75152 82.8104 10.2529C84.8278 11.5155 87.3704 11.8355 87.6544 11.8649L87.7664 11.8769C96.7331 12.4942 100.005 18.7995 101.161 22.5422L101.172 22.5795C101.358 23.2889 101.838 25.5075 101.838 27.2355V41.4862C101.793 42.2089 101.174 42.3542 100.942 42.4102L100.829 42.4395C100.82 42.4395 100.014 42.2115 99.1038 41.3009L94.7837 36.9809V36.9795L90.5531 32.7489C90.3131 32.5075 90.0797 32.2982 89.8504 32.1022C89.8504 32.1022 87.9904 29.9622 85.6931 31.3795C69.9397 41.4729 55.6304 42.9809 48.4998 42.9809C45.6264 42.9809 43.9704 42.7369 43.9011 42.7275L43.6958 42.7049C42.7424 42.6382 42.3011 42.3262 42.2651 41.7355V30.6715C42.4558 29.0689 42.9038 26.2329 43.3611 24.9862C43.4731 24.6955 43.5411 24.3809 43.5411 24.0502C43.5411 22.6169 42.3784 21.4529 40.9451 21.4529C39.8104 21.4529 38.8558 22.1849 38.5024 23.2009L38.4878 23.1942C37.6451 25.4849 37.1424 29.7475 37.0878 30.2262L37.0718 30.3729V41.6995C37.0398 43.9915 38.6584 47.5089 43.2331 47.8782C43.7171 47.9449 45.5971 48.1729 48.4998 48.1729C55.7984 48.1729 70.0437 46.7195 85.8717 37.3649C87.3224 36.7009 88.0757 37.6155 88.0757 37.6155L91.1117 40.6515H91.1104L95.4291 44.9729C97.6211 47.1662 99.7317 47.5809 101.017 47.5809C101.546 47.5809 101.936 47.5102 102.133 47.4649C105.896 46.5782 106.965 43.4329 107.028 41.7355H107.033V41.5502V41.5182V40.7262V27.2355C107.033 24.4555 106.226 21.3835 106.193 21.2569Z" fill="#38B4D2"/>
</svg>
