<svg width="145" height="145" viewBox="0 0 145 145" fill="none" xmlns="http://www.w3.org/2000/svg">
<path d="M72.2211 14.6844C72.2211 13.2564 71.0651 12.0991 69.6358 12.0991C69.5864 12.0991 69.5438 12.1084 69.4958 12.1124L69.4918 12.0644C56.2864 13.3391 45.6811 23.8417 44.2824 37.0377L44.3011 37.0391C44.2798 37.1697 44.2611 37.3017 44.2611 37.4377C44.2611 38.8657 45.4171 40.0244 46.8464 40.0244C48.2224 40.0244 49.3411 38.9417 49.4184 37.5817L49.4464 37.5857C50.5864 26.8311 59.2291 18.2724 69.9904 17.2351V17.2337C71.2491 17.0591 72.2211 15.9897 72.2211 14.6844Z" fill="#38B4D2"/>
<path d="M144.334 64.508C144.334 49.3573 132.985 36.7507 117.937 35.1853C115.853 34.9693 113.701 34.9747 111.616 35.2027C111.545 35.0667 111.453 34.8293 111.38 34.4613C111.356 34.2867 111.293 33.8413 111.248 33.58C108.081 15.076 92.2569 1.21733 73.6063 0.625331C73.5449 0.622664 72.0969 0.588001 71.2063 0.620001C51.9129 1.36267 35.9863 15.588 33.3116 34.4587C33.2396 34.8267 33.1463 35.0667 33.0769 35.2027C32.0063 35.0867 30.9209 35.0267 29.8383 35.0267C13.5836 35.0267 0.356934 48.252 0.356934 64.508C0.356934 79.5987 11.6543 92.1987 26.6396 93.8173L26.6423 93.7893C26.7503 93.804 26.8596 93.8227 26.9729 93.8227C28.4063 93.8227 29.5703 92.6613 29.5703 91.2267C29.5703 89.848 28.4889 88.7307 27.1343 88.6467C14.8236 87.284 5.55027 76.9187 5.55027 64.508C5.55027 51.1147 16.4449 40.2187 29.8383 40.2187C30.8196 40.2187 31.8049 40.2787 32.7663 40.3933C34.6463 40.664 37.6396 39.56 38.4249 35.3627L38.4463 35.2453C40.7436 18.8347 54.6049 6.45601 71.4063 5.81067C72.0036 5.78667 73.0996 5.80666 73.4583 5.81466C89.6356 6.32933 103.376 18.3733 106.129 34.4547C106.174 34.724 106.244 35.228 106.246 35.236L106.266 35.3627C107.052 39.5613 110.046 40.664 111.925 40.3933C113.722 40.1787 115.593 40.1627 117.398 40.3507C129.793 41.64 139.14 52.0253 139.14 64.508C139.14 76.9467 129.829 87.3267 117.481 88.6547L117.485 88.688C116.152 88.8 115.104 89.904 115.104 91.264C115.104 92.6987 116.265 93.8613 117.698 93.8613C117.905 93.8613 118.101 93.8293 118.294 93.7853C133.157 92.0573 144.334 79.5187 144.334 64.508Z" fill="#38B4D2"/>
<path d="M96.902 115.803H96.3473H89.958H77.0673H77.0646C75.6313 115.803 74.4673 116.966 74.4673 118.399C74.4673 119.833 75.6313 120.998 77.0646 120.998H77.0673H89.39H95.5593H96.902C98.3353 120.998 99.4966 119.833 99.4966 118.399C99.4966 116.966 98.3353 115.803 96.902 115.803Z" fill="#38B4D2"/>
<path d="M89.0258 127.632H85.7725H82.0818H77.0672H77.0645C75.6312 127.632 74.4672 128.795 74.4672 130.228C74.4672 131.663 75.6312 132.827 77.0645 132.827H77.0672H81.5138H87.0818H89.0258C90.4592 132.827 91.6205 131.663 91.6205 130.228C91.6205 128.795 90.4592 127.632 89.0258 127.632Z" fill="#38B4D2"/>
<path d="M83.0492 96.6296C83.0492 95.2803 82.8505 94.1016 82.4425 93.0976C82.0385 92.0923 81.4598 91.2043 80.7105 90.4323C79.9598 89.6576 79.0385 88.9723 77.9425 88.3723C76.8505 87.7723 75.3412 87.1203 73.4185 86.415C71.4998 85.711 70.1372 84.963 69.3358 84.1763C68.5332 83.3883 68.1332 82.343 68.1332 81.0363C68.1332 79.583 68.5358 78.4643 69.3478 77.6843C70.1572 76.9043 71.2825 76.515 72.7225 76.515C74.1772 76.515 75.3292 77.059 76.1772 78.147C76.6892 78.8056 77.0278 79.6283 77.2305 80.5803C77.2372 80.5776 77.2438 80.5736 77.2492 80.5696C77.5412 81.7603 78.6065 82.6443 79.8865 82.6443C81.3932 82.6443 82.6145 81.4256 82.6145 79.9203C82.6145 79.6803 82.5732 79.455 82.5158 79.2336V79.235C82.1692 77.7856 81.5878 76.519 80.7558 75.4456C79.4012 73.699 77.5025 72.6203 75.0758 72.195V69.547C75.0758 68.1123 73.9105 66.9496 72.4772 66.9496C71.0438 66.9496 69.8812 68.1123 69.8812 69.547V72.287C67.8558 72.7163 66.2052 73.5976 64.9358 74.939C63.4225 76.5456 62.6652 78.5936 62.6652 81.083C62.6652 84.7576 64.4105 87.5323 67.9092 89.4083C68.9585 89.9776 70.4278 90.5976 72.3172 91.2643C74.2092 91.9323 75.5585 92.6816 76.3678 93.5136C77.1772 94.347 77.5825 95.4003 77.5825 96.675C77.5825 98.0403 77.1372 99.1363 76.2438 99.9603C75.3518 100.786 74.0505 101.198 72.3412 101.198C70.5998 101.198 69.2532 100.68 68.2998 99.6456C67.8078 99.1096 67.4598 98.447 67.2238 97.6816C67.0705 96.303 65.9158 95.2256 64.4945 95.2256C62.9705 95.2256 61.7345 96.4603 61.7345 97.9843C61.7345 98.279 61.7945 98.5603 61.8785 98.827C61.8878 98.8656 61.9052 98.899 61.9132 98.9376C61.9318 98.9843 61.9438 99.0323 61.9625 99.0763C62.3598 100.347 62.9625 101.467 63.7998 102.414C65.2572 104.052 67.2892 105.076 69.8812 105.495V107.446C69.8812 108.88 71.0438 110.043 72.4772 110.043C73.9105 110.043 75.0758 108.88 75.0758 107.446V105.472C77.4478 105.096 79.3318 104.207 80.7225 102.796C82.2745 101.22 83.0492 99.1656 83.0492 96.6296Z" fill="#38B4D2"/>
<path d="M104.595 137.763C104.595 138.603 104.327 138.849 104.228 138.943C103.679 139.451 102.461 139.539 101.976 139.506L66.7427 139.494V124.361H61.5521V136.342L44.1441 120.998H58.8267C59.9801 120.998 60.8667 121.223 61.2601 121.617C61.4854 121.843 61.5374 122.134 61.5521 122.262V124.361H66.7427V122.507C66.7641 121.883 66.6921 119.849 65.1081 118.129C63.6881 116.585 61.5761 115.803 58.8267 115.803H39.8681V61.0728H104.595V137.763ZM112.448 55.8848V55.8808H32.0747V55.8822C32.0681 55.8822 32.0601 55.8808 32.0507 55.8808C30.6174 55.8808 29.4561 57.0422 29.4561 58.4768C29.4561 59.9102 30.6174 61.0728 32.0507 61.0728C32.0601 61.0728 32.0681 61.0702 32.0747 61.0702V61.0728H34.6747V117.165C34.6747 119.527 36.8387 121.519 37.5734 122.126L61.3774 143.11C61.6881 143.373 63.3841 144.687 65.9694 144.687H101.644C101.767 144.694 101.945 144.702 102.167 144.702C103.367 144.702 105.865 144.477 107.72 142.787C108.664 141.925 109.789 140.357 109.789 137.763V61.0728H112.448V61.0675C113.855 61.0355 114.987 59.8915 114.987 58.4768C114.987 57.0635 113.855 55.9182 112.448 55.8848Z" fill="#38B4D2"/>
</svg>
