<svg width="145" height="144" viewBox="0 0 145 144" fill="none" xmlns="http://www.w3.org/2000/svg">
<path d="M44.8857 73.8223L49.2311 71.5036L31.2017 32.8583C30.2831 30.8836 28.9177 30.5823 28.1871 30.5783H28.1737C26.6857 30.5783 25.6004 31.7463 25.0791 32.8423L7.04175 71.5049L11.3884 73.8223L28.1351 37.9223L44.8857 73.8223Z" fill="#38B4D2"/>
<path d="M99.4366 73.8223L95.0913 71.5036L113.121 32.8583C114.039 30.8836 115.405 30.5823 116.135 30.5783H116.145C117.637 30.5783 118.723 31.7463 119.243 32.8423L137.279 71.5049L132.935 73.8223L116.187 37.9223L99.4366 73.8223Z" fill="#38B4D2"/>
<path d="M15.0298 85.6406H24.4298V80.4473H15.0298V85.6406Z" fill="#38B4D2"/>
<path d="M41.2299 85.6406H31.8433V80.4473H41.2299V85.6406Z" fill="#38B4D2"/>
<path d="M53.2472 82.2139C53.1552 82.2779 53.0672 82.3499 52.9632 82.4006C51.2992 83.2193 49.9219 84.3539 48.6352 85.6379H48.7192C48.3085 89.2299 46.5339 95.4219 39.2419 96.3393H17.0312C9.90587 95.4433 8.05254 89.5153 7.58854 85.8873C7.11921 85.6313 6.69921 85.2606 6.38187 84.7886C6.24854 84.5886 6.10854 84.3953 5.96854 84.1993C5.86721 84.0779 5.60054 83.7473 5.5192 83.6619C5.3632 83.5006 5.20054 83.3433 5.03254 83.1926C4.96987 83.1699 4.52321 82.8673 4.39387 82.7993C3.72854 82.4513 3.29121 81.8379 3.07787 81.1499L2.99521 82.9019C2.72054 88.7499 5.23254 100.17 16.6925 101.519L16.8032 101.531L39.5819 101.519C51.0405 100.17 53.5525 88.7499 53.2792 82.9019L53.2472 82.2139Z" fill="#38B4D2"/>
<path d="M105.081 96.3399H127.291C134.579 95.4239 136.357 89.2359 136.769 85.6399H95.6032C96.0139 89.2305 97.7885 95.4239 105.081 96.3399ZM127.519 101.533L104.742 101.521C93.2819 100.171 90.7699 88.7519 91.0445 82.9025L91.1579 80.4452H141.214L141.329 82.9025C141.602 88.7519 139.09 100.171 127.631 101.521L127.519 101.533Z" fill="#38B4D2"/>
<path d="M96.3233 74.3553C94.3713 74.3553 92.722 75.75 92.722 77.4006C92.722 79.0513 94.3713 80.4473 96.3233 80.4473H136.047C137.999 80.4473 139.65 79.0513 139.65 77.4006C139.65 75.75 137.999 74.3553 136.047 74.3553H96.3233ZM136.047 85.6406H96.3233C91.8806 85.6406 88.2646 81.9446 88.2646 77.4006C88.2646 72.858 91.8806 69.1606 96.3233 69.1606H136.047C140.49 69.1606 144.106 72.858 144.106 77.4006C144.106 81.9446 140.49 85.6406 136.047 85.6406" fill="#38B4D2"/>
<path d="M47.999 80.4473H37.463H34.1576H23.3136H22.0816H8.27498C6.32298 80.4473 4.67364 79.0513 4.67364 77.4006C4.67364 75.75 6.32298 74.3553 8.27498 74.3553H47.999C49.951 74.3553 51.6016 75.75 51.6016 77.4006C51.6016 79.0513 49.951 80.4473 47.999 80.4473ZM47.999 69.1606H8.27498C3.83231 69.1606 0.216309 72.858 0.216309 77.4006C0.216309 81.9446 3.83231 85.6406 8.27498 85.6406H22.0816H22.8683H33.587H37.463H47.999C52.4416 85.6406 56.0563 81.9446 56.0563 77.4006C56.0563 72.858 52.4416 69.1606 47.999 69.1606Z" fill="#38B4D2"/>
<path d="M138.767 26.5454C138.211 27.8508 136.818 28.7921 136.005 29.0428C127.635 31.6281 117.371 30.9468 107.103 27.1281C99.3806 24.2548 90.9646 21.5188 81.7619 20.9574C81.7619 20.9574 73.1739 19.8494 62.6872 20.9574C53.4846 21.5188 45.0686 24.2548 37.3459 27.1281C27.0766 30.9468 16.8139 31.6281 8.44458 29.0428C7.63125 28.7921 6.2379 27.8508 5.6819 26.5454C5.35257 25.7734 5.38057 25.0094 5.77257 24.1388C6.86457 21.7094 11.2859 22.6401 11.3192 22.6468L11.4059 22.6668C22.1086 24.7814 32.8352 21.9108 39.9499 19.1294C47.9619 15.9974 55.1872 14.2241 62.0046 13.6881C62.2552 13.6854 62.5259 13.6721 62.8206 13.6428C67.3006 13.2094 68.0179 8.81077 68.0179 8.81077H68.0152C68.0152 6.82544 69.6299 5.20944 71.6179 5.20944C73.6032 5.20944 75.2192 6.82544 75.2192 8.81077C75.2192 8.81077 75.8086 12.4001 79.8899 13.3908C79.8979 13.4068 79.9086 13.4188 79.9152 13.4334C80.0019 13.4388 80.0872 13.4481 80.1726 13.4534C80.5646 13.5348 80.9752 13.6001 81.4312 13.6281C81.6006 13.6388 81.7619 13.6441 81.9099 13.6428C88.8832 14.1254 96.2766 15.9174 104.501 19.1294C111.613 21.9108 122.341 24.7814 133.043 22.6668L133.129 22.6468C133.163 22.6401 137.583 21.7094 138.675 24.1388C139.067 25.0094 139.097 25.7734 138.767 26.5454ZM143.133 21.9161C140.911 16.9761 135.174 16.8561 132.095 17.5708C122.513 19.4508 112.735 16.8094 106.215 14.2614C97.3859 10.8108 89.4099 8.90544 81.8352 8.4281C81.7899 8.39344 81.7619 8.37344 81.7619 8.37344C81.7619 8.37344 81.2819 8.31077 80.4126 8.23077C80.4032 8.23077 80.3926 8.23077 80.3819 8.22944C80.0819 3.65077 76.2699 0.0161046 71.6179 0.0161046C66.9206 0.0161046 63.0832 3.7201 62.8446 8.35744C62.7912 8.3641 62.7392 8.36677 62.6872 8.37344C62.1939 8.42544 61.7406 8.48144 61.3059 8.53877C54.1192 9.14144 46.5592 11.0081 38.2326 14.2614C31.7126 16.8094 21.9366 19.4508 12.3539 17.5708C9.27391 16.8561 3.53658 16.9761 1.31525 21.9161C0.303247 24.1654 0.256572 26.5014 1.18191 28.6708C2.38057 31.4881 4.99658 33.3908 7.05658 34.0254C10.8392 35.1934 14.9432 35.7734 19.2352 35.7734C25.5619 35.7734 32.2939 34.5148 38.9872 32.0241C46.3686 29.2801 54.3832 26.6668 62.9726 26.1414C62.9726 26.1414 72.9979 25.3574 81.4752 26.1414C90.0672 26.6668 98.0792 29.2801 105.462 32.0241C112.155 34.5148 118.886 35.7734 125.213 35.7734C129.506 35.7734 133.61 35.1934 137.393 34.0254C139.453 33.3908 142.067 31.4881 143.267 28.6708C144.191 26.5014 144.145 24.1654 143.133 21.9161" fill="#38B4D2"/>
<path d="M113.601 127.319H80.0693V125.889V115.815V33.9146H80.0653C80.0653 33.9012 80.0693 33.8906 80.0693 33.8772C80.0693 32.4426 78.9067 31.2799 77.472 31.2799C76.0387 31.2799 74.876 32.4426 74.876 33.8772C74.876 33.8906 74.88 33.9012 74.88 33.9146H74.876V115.815V122.813V128.199H74.9293C75.1307 129.715 76.1107 132.513 80.6213 132.513C80.8827 132.513 81.1173 132.497 81.3547 132.487C81.3547 132.496 81.3573 132.505 81.3587 132.513H113.601C114.667 132.513 115.535 133.379 115.535 134.445V136.672C115.535 137.736 114.667 138.604 113.601 138.604H30.0573C28.992 138.604 28.1253 137.736 28.1253 136.672V134.445C28.1253 133.379 28.992 132.513 30.0573 132.513H63.044C67.5547 132.513 68.5347 129.715 68.736 128.199H68.784V127.735C68.7987 127.433 68.784 127.247 68.784 127.247V122.753V115.815V33.9146H68.7653C68.7693 33.8546 68.784 33.7972 68.784 33.7359C68.784 32.3012 67.6213 31.1386 66.1867 31.1386C64.7533 31.1386 63.5907 32.3012 63.5907 33.7359C63.5907 33.7972 63.604 33.8546 63.608 33.9146H63.5907V115.815V124.815V127.319H30.0573C26.1293 127.319 22.9307 130.516 22.9307 134.445V136.672C22.9307 140.6 26.1293 143.796 30.0573 143.796H113.601C117.531 143.796 120.728 140.6 120.728 136.672V134.445C120.728 130.516 117.531 127.319 113.601 127.319Z" fill="#38B4D2"/>
</svg>
