<svg width="146" height="145" viewBox="0 0 146 145" fill="none" xmlns="http://www.w3.org/2000/svg">
<path d="M53.9567 91.6807C50.5994 91.6807 47.8634 88.998 47.762 85.6647H47.7634V79.89H47.7527C47.7527 76.4687 50.5367 73.6847 53.9567 73.6847C57.378 73.6847 60.1607 76.4687 60.1607 79.89H60.1727V85.4767H60.1607C60.1607 88.898 57.378 91.6807 53.9567 91.6807ZM65.366 79.89H65.354C65.354 73.6047 60.242 68.4914 53.9567 68.4914C47.6727 68.4914 42.558 73.6047 42.558 79.89H42.57V85.4767H42.558C42.558 91.762 47.6727 96.874 53.9567 96.874C60.1794 96.874 65.2434 91.8634 65.3447 85.6647H65.366V79.89Z" fill="#38B4D2"/>
<path d="M71.9541 108.191V115.289C72.1061 115.267 72.2581 115.245 72.4261 115.246C73.6288 115.253 74.6635 115.313 75.7955 115.158C76.2595 115.094 76.7061 115.098 77.1488 115.121V108.191C77.1488 107.065 76.8155 105.509 76.7488 105.21L76.6701 104.934C75.6088 101.83 70.8635 91.7433 54.3248 91.6193V91.6139H54.0835C54.0621 91.6139 54.0421 91.6126 54.0208 91.6126V91.6139H53.9035V91.6126C53.8835 91.6126 53.8648 91.6139 53.8435 91.6139H53.5875V91.6193C37.0581 91.7486 32.3168 101.83 31.2568 104.934L31.1781 105.21C31.1115 105.509 30.7768 107.065 30.7768 108.191V115.309C31.1101 115.17 31.4728 115.086 31.8515 115.074C33.0968 115.03 34.3421 115.047 35.5888 115.05C35.7181 115.05 35.8448 115.071 35.9715 115.09V108.191C35.9715 107.814 36.1088 106.999 36.2168 106.477C37.2861 103.478 41.0768 96.8926 53.6648 96.8113H54.2595C66.8488 96.8926 70.6395 103.478 71.7075 106.477C71.8168 106.999 71.9541 107.814 71.9541 108.191Z" fill="#38B4D2"/>
<path d="M139.728 51.3704C139.728 56.353 135.649 60.4304 130.669 60.4304H91.3904C90.9197 60.729 90.4557 61.0304 89.917 61.2264C89.245 61.4677 88.6184 61.4637 88.0291 61.2597L83.9211 63.7864L83.9224 63.777C82.7957 64.4837 81.6437 65.193 80.4184 65.9584C81.1077 63.6437 81.7344 61.5064 82.389 59.377C82.5784 58.765 82.6624 58.1557 82.6611 57.5157C82.6584 55.617 82.6611 53.717 82.6597 51.817C82.6531 51.669 82.637 51.521 82.637 51.3704V14.913C82.637 9.93171 86.7131 5.85437 91.6971 5.85437H130.669C135.649 5.85437 139.728 9.93171 139.728 14.913V51.3704ZM144.988 51.2864V11.789C144.673 10.441 144.749 9.0157 144.009 7.75037C141.336 3.17837 137.464 0.666371 132.088 0.666371C118.328 0.665037 104.57 0.651702 90.8104 0.670369C83.1237 0.679702 77.4437 6.38904 77.4197 14.0904C77.4157 15.4464 77.4184 16.7997 77.4197 18.1557H77.4477V45.9184C77.4477 45.9184 77.4797 49.3317 77.1331 51.9317C76.3064 54.7304 75.4664 57.5224 74.6237 60.3157C73.4664 64.1597 74.5224 67.7117 77.4997 69.9757C80.3744 72.1597 84.1197 72.2357 87.4571 70.169C89.8344 68.6944 92.041 66.6224 94.629 65.8944C97.2744 65.149 100.29 65.7104 103.145 65.709C110.025 65.7064 116.905 65.733 123.785 65.6797C123.924 65.6797 124.049 65.6837 124.162 65.6944H134.964C136.75 65.6944 139.62 63.9064 139.62 63.9064C142.104 62.3317 143.852 60.0384 144.697 56.8944C145.129 55.5584 144.988 51.2864 144.988 51.2864" fill="#38B4D2"/>
<path d="M89.7817 62.9259H103.812V65.71H89.7817V62.9259Z" fill="#38B4D2"/>
<path d="M88.0283 61.2601C88.0283 61.2601 89.2816 60.4307 91.8789 60.4307C94.4763 60.4307 95.1243 63.7747 95.1243 63.7747L91.5763 65.3721L88.6829 63.7747L88.0283 61.2601Z" fill="#38B4D2"/>
<path d="M125.76 22.1114H122.3H100.064H100.063H96.6028C95.1694 22.1114 94.0068 23.2727 94.0068 24.7074C94.0068 26.1407 95.1694 27.3047 96.6028 27.3047H100.063H100.064H100.792H104.253H122.3H125.76C127.193 27.3047 128.355 26.1407 128.355 24.7074C128.355 23.2727 127.193 22.1114 125.76 22.1114Z" fill="#38B4D2"/>
<path d="M117.29 39.1055H115.756H114.938H107.49H106.432H105.074H105.073C103.64 39.1055 102.476 40.2668 102.476 41.7015C102.476 43.1348 103.64 44.2988 105.073 44.2988H105.074H106.432H107.638H111.686H114.938H115.756H117.29C118.725 44.2988 119.886 43.1348 119.886 41.7015C119.886 40.2682 118.725 39.1055 117.29 39.1055Z" fill="#38B4D2"/>
<path d="M74.5517 112.708C73.1184 112.708 71.9557 113.87 71.9557 115.304C71.9557 116.737 73.1184 117.902 74.5517 117.902C75.9864 117.902 77.1477 116.737 77.1477 115.304C77.1477 113.87 75.9864 112.708 74.5517 112.708Z" fill="#38B4D2"/>
<path d="M33.3733 112.708C31.9399 112.708 30.7773 113.87 30.7773 115.304C30.7773 116.737 31.9399 117.902 33.3733 117.902C34.8079 117.902 35.9693 116.737 35.9693 115.304C35.9693 113.87 34.8079 112.708 33.3733 112.708Z" fill="#38B4D2"/>
<path d="M131.019 139.25H98.4113H97.5033H48.3953H46.1927H14.8807C11.0087 139.25 7.65001 136.7 6.48601 133.158H45.3927H51.3927H94.5073H97.6114H139.415C138.251 136.7 134.891 139.25 131.019 139.25ZM142.398 127.964H137.757V113.552V73.5523C137.757 72.1163 136.594 70.9537 135.158 70.9537C133.725 70.9537 132.562 72.1163 132.562 73.5523V113.552V127.964H97.6114H94.5073H51.3927H45.3927H13.6233V114.884V56.7577C13.6233 51.9443 17.538 48.031 22.35 48.031H62.3873H64.1513H69.646C71.0793 48.031 72.242 46.8683 72.242 45.4337C72.242 43.999 71.0793 42.8364 69.646 42.8364H64.026H62.3873H22.35C14.674 42.8364 8.43001 49.0817 8.43001 56.7577V114.884V127.964H3.50201C-0.304656 127.964 1.19001 133.39 1.19001 133.39C2.56868 139.718 8.24468 144.444 14.8807 144.444H46.1927H48.3953H72.606H97.5033H98.4113H131.019C137.657 144.444 143.33 139.718 144.71 133.39C144.71 133.39 146.206 127.964 142.398 127.964Z" fill="#38B4D2"/>
</svg>
